<svg width="164" height="54" viewBox="0 0 164 54" fill="none" xmlns="http://www.w3.org/2000/svg">
<path fill-rule="evenodd" clip-rule="evenodd" d="M104 12.0787C103.997 11.65 104.078 11.2249 104.241 10.8282C104.404 10.4316 104.643 10.0713 104.947 9.7686C105.25 9.46586 105.611 9.22668 106.007 9.06507C106.404 8.90347 106.829 8.82268 107.257 8.8274H109.55V4.04351C109.478 3.54099 109.515 3.02893 109.659 2.54203C109.802 2.05513 110.048 1.60474 110.381 1.22134C110.713 0.837932 111.124 0.530469 111.585 0.319751C112.046 0.109034 112.548 0 113.055 0C113.562 0 114.063 0.109034 114.525 0.319751C114.986 0.530469 115.397 0.837932 115.729 1.22134C116.061 1.60474 116.308 2.05513 116.451 2.54203C116.594 3.02893 116.631 3.54099 116.56 4.04351V8.8274H124.013C124.441 8.82268 124.866 8.90347 125.263 9.06507C125.659 9.22668 126.02 9.46586 126.323 9.7686C126.626 10.0713 126.866 10.4316 127.029 10.8282C127.191 11.2249 127.273 11.65 127.27 12.0787C127.265 12.941 126.92 13.7667 126.31 14.3756C125.7 14.9846 124.874 15.3276 124.013 15.3299H116.56V26.8467C116.56 32.4634 119.684 35.3337 124.013 35.3337C124.883 35.3337 125.719 35.68 126.335 36.2964C126.95 36.9127 127.296 37.7487 127.296 38.6204C127.296 39.4921 126.95 40.3281 126.335 40.9445C125.719 41.5608 124.883 41.9071 124.013 41.9071C115.79 41.9071 109.55 36.1044 109.55 26.8467V15.3299H107.257C106.396 15.3276 105.57 14.9846 104.96 14.3756C104.35 13.7667 104.005 12.941 104 12.0787ZM31.6187 25.4312C31.6442 22.2123 32.5782 19.0669 34.3122 16.3609C36.0461 13.6549 38.5087 11.4996 41.4133 10.1459C44.3179 8.79209 47.5451 8.29549 50.7194 8.71386C53.8938 9.13222 56.8847 10.4483 59.3442 12.5091C59.7245 12.8404 60.0331 13.2466 60.2508 13.7028C60.4686 14.1589 60.5908 14.6551 60.61 15.1607C60.6146 16.1133 60.2487 17.03 59.5903 17.7151L49.8503 29.3733C49.5675 29.7423 49.2018 30.0388 48.7832 30.2385C48.3646 30.4382 47.9049 30.5354 47.4417 30.5223C47.0144 30.5454 46.5868 30.4798 46.1857 30.3297C45.7846 30.1796 45.4185 29.9481 45.1102 29.6497C44.8018 29.3513 44.5578 28.9922 44.3933 28.595C44.2289 28.1977 44.1474 27.7706 44.1541 27.3403C44.1333 26.9566 44.1895 26.5727 44.3193 26.2113C44.4492 25.8499 44.6501 25.5184 44.91 25.2367L52.5754 16.2036C51.3201 15.4302 49.8719 15.0317 48.3999 15.0546C42.9585 15.0546 38.6512 19.6419 38.6512 25.4312C38.6512 31.2205 42.897 35.8078 48.3999 35.8078C49.6545 35.8204 50.8981 35.5716 52.0525 35.0773C53.2068 34.5829 54.2468 33.8536 55.1071 32.9352C55.2407 32.8266 55.3689 32.7191 55.4939 32.6142L55.4949 32.6134L55.4952 32.6131C56.3155 31.925 56.9973 31.3531 58.1486 31.3531C58.5969 31.3336 59.0443 31.4069 59.4633 31.5683C59.8823 31.7297 60.2639 31.9759 60.5844 32.2916C60.905 32.6072 61.1576 32.9857 61.3269 33.4035C61.4961 33.8213 61.5782 34.2696 61.5682 34.7206C61.5034 35.5797 61.1428 36.3893 60.5485 37.0098C59.0285 38.7285 57.1542 40.0933 55.0561 41.0092C52.958 41.9251 50.6865 42.37 48.3999 42.313C46.1859 42.3477 43.9876 41.9346 41.9354 41.0984C39.8833 40.2621 38.0192 39.0198 36.4539 37.4451C34.8886 35.8704 33.654 33.9955 32.8234 31.9317C31.9928 29.8679 31.5831 27.6573 31.6187 25.4312ZM18.0458 15.6467H3.98571C3.12697 15.642 2.30473 15.2968 1.6975 14.6861C1.09027 14.0755 0.747078 13.2485 0.742436 12.3849C0.737702 11.9552 0.818357 11.5289 0.979671 11.131C1.14098 10.7331 1.37971 10.3717 1.68183 10.0678C1.98394 9.764 2.34336 9.52393 2.73899 9.36169C3.13462 9.19946 3.55848 9.11836 3.98571 9.12312H25.0449C25.4721 9.11836 25.896 9.19946 26.2917 9.36169C26.6873 9.52393 27.0467 9.764 27.3488 10.0678C27.6509 10.3717 27.8896 10.7331 28.051 11.131C28.2123 11.5289 28.2929 11.9552 28.2882 12.3849C28.2554 13.2548 27.8916 14.0789 27.2719 14.6868L10.1541 35.235H25.0449C25.4721 35.2303 25.896 35.3114 26.2917 35.4736C26.6873 35.6358 27.0467 35.8759 27.3488 36.1798C27.6509 36.4836 27.8896 36.8451 28.051 37.243C28.2123 37.6408 28.2929 38.0671 28.2882 38.4968C28.2836 39.3604 27.9404 40.1874 27.3331 40.7981C26.7259 41.4087 25.9037 41.7539 25.0449 41.7586H3.24338C2.37537 41.7492 1.54648 41.394 0.938489 40.7709C0.330499 40.1477 -0.00696067 39.3076 0.000108878 38.4346C0.022747 37.572 0.362843 36.7486 0.954535 36.1238L18.0458 15.6467ZM75.0363 50.9542V38.4456C77.9538 41.0168 81.7105 42.4237 85.5934 42.3994C94.7547 42.3994 101.69 34.935 101.69 25.4849C101.69 16.0347 94.7547 8.57032 85.5934 8.57032C81.6974 8.53517 77.9301 9.96825 75.0363 12.5862V12.1429C74.9163 11.2977 74.4963 10.5242 73.8537 9.96471C73.211 9.40518 72.3887 9.09714 71.5379 9.09714C70.687 9.09714 69.8648 9.40518 69.2221 9.96471C68.5794 10.5242 68.1595 11.2977 68.0395 12.1429V50.9542C68.1595 51.7995 68.5794 52.5729 69.2221 53.1324C69.8648 53.6919 70.687 54 71.5379 54C72.3887 54 73.211 53.6919 73.8537 53.1324C74.4963 52.5729 74.9163 51.7995 75.0363 50.9542ZM84.8337 15.0773C90.3022 15.0773 94.631 19.5453 94.631 25.4849C94.631 31.4244 90.3022 35.8925 84.8337 35.8925C79.3652 35.8925 75.0363 31.4244 75.0363 25.4849V25.0328C75.2307 19.3591 79.3652 15.0773 84.8337 15.0773ZM133.188 16.0685C131.339 18.8432 130.352 22.1054 130.352 25.4425C130.313 27.6691 130.721 29.881 131.553 31.9459C132.384 34.0109 133.622 35.8867 135.192 37.4614C136.762 39.0362 138.633 40.2775 140.692 41.1115C142.751 41.9454 144.956 42.3548 147.176 42.3153C150.504 42.3153 153.756 41.3257 156.523 39.4717C159.29 37.6177 161.446 34.9825 162.719 31.8994C163.993 28.8163 164.326 25.4238 163.677 22.1508C163.028 18.8778 161.425 15.8713 159.072 13.5116C156.72 11.1519 153.722 9.54494 150.458 8.8939C147.195 8.24286 143.812 8.57699 140.738 9.85405C137.664 11.1311 135.036 13.2937 133.188 16.0685ZM147.176 15.0606C152.758 15.0606 156.955 19.7121 156.955 25.4425C156.955 31.111 152.766 35.8244 147.176 35.8244C141.586 35.8244 137.398 31.1729 137.398 25.4425C137.398 19.7121 141.595 15.0606 147.176 15.0606Z" fill="url(#paint0_linear_22971_8319)"/>
<defs>
<linearGradient id="paint0_linear_22971_8319" x1="68.7163" y1="9.59504" x2="76.9446" y2="57.7746" gradientUnits="userSpaceOnUse">
<stop stop-color="#FF3269"/>
<stop offset="1" stop-color="#FF794D"/>
</linearGradient>
</defs>
</svg>
